<svg width="30" height="30" viewBox="0 0 30 30" fill="none" xmlns="http://www.w3.org/2000/svg">
<path d="M15 25.2C9.35999 25.2 4.79999 20.64 4.79999 15C4.79999 9.36 9.35999 4.8 15 4.8C20.64 4.8 25.2 9.36 25.2 15C25.2 20.64 20.64 25.2 15 25.2ZM15 6C10.02 6 5.99999 10.02 5.99999 15C5.99999 19.98 10.02 24 15 24C19.98 24 24 19.98 24 15C24 10.02 19.98 6 15 6Z" fill="#99FFFF"/>
<path d="M11.88 11.76C12.06 11.28 12.24 10.92 12.6 10.62C12.9 10.32 13.26 10.08 13.74 9.9C14.22 9.72 14.7 9.66 15.24 9.66C15.66 9.66 16.08 9.72 16.44 9.84C16.8 9.96 17.16 10.14 17.46 10.38C17.76 10.62 18 10.92 18.12 11.28C18.3 11.64 18.36 12.06 18.36 12.48C18.36 13.08 18.24 13.56 18 13.98C17.76 14.4 17.4 14.76 17.04 15.18L16.26 15.96C16.08 16.14 15.9 16.32 15.84 16.5C15.72 16.68 15.66 16.92 15.66 17.16C15.6 17.4 15.6 17.58 15.6 18.06H14.64C14.64 17.58 14.64 17.4 14.7 17.04C14.76 16.74 14.88 16.44 15 16.14C15.12 15.9 15.3 15.66 15.54 15.42C15.78 15.18 16.08 14.94 16.38 14.58C16.68 14.28 16.92 13.98 17.1 13.68C17.28 13.38 17.4 12.96 17.4 12.6C17.4 12.3 17.34 12 17.22 11.76C17.1 11.52 16.92 11.28 16.74 11.1C16.56 10.92 16.32 10.8 16.02 10.68C15.72 10.56 15.48 10.5 15.18 10.5C14.76 10.5 14.4 10.56 14.1 10.74C13.8 10.86 13.5 11.1 13.32 11.34C13.14 11.58 12.96 11.88 12.84 12.24C12.72 12.6 12.6 12.78 12.6 13.2H11.64C11.64 12.66 11.7 12.24 11.88 11.76ZM15.6 19.2V20.4H14.4V19.2H15.6Z" fill="#99FFFF"/>
</svg>
